%TF.GenerationSoftware,KiCad,Pcbnew,9.0.0*%
%TF.CreationDate,2025-03-29T17:04:07-04:00*%
%TF.ProjectId,ResistorString,52657369-7374-46f7-9253-7472696e672e,rev?*%
%TF.SameCoordinates,Original*%
%TF.FileFunction,Soldermask,Top*%
%TF.FilePolarity,Negative*%
%FSLAX46Y46*%
G04 Gerber Fmt 4.6, Leading zero omitted, Abs format (unit mm)*
G04 Created by KiCad (PCBNEW 9.0.0) date 2025-03-29 17:04:07*
%MOMM*%
%LPD*%
G01*
G04 APERTURE LIST*
G04 APERTURE END LIST*
G36*
X157029034Y-105860764D02*
G01*
X157062125Y-105882875D01*
X157084236Y-105915966D01*
X157092000Y-105955000D01*
X157092000Y-106815000D01*
X157084236Y-106854034D01*
X157062125Y-106887125D01*
X157029034Y-106909236D01*
X156990000Y-106917000D01*
X156010000Y-106917000D01*
X155970966Y-106909236D01*
X155937875Y-106887125D01*
X155915764Y-106854034D01*
X155908000Y-106815000D01*
X155908000Y-105955000D01*
X155915764Y-105915966D01*
X155937875Y-105882875D01*
X155970966Y-105860764D01*
X156010000Y-105853000D01*
X156990000Y-105853000D01*
X157029034Y-105860764D01*
G37*
G36*
X152761488Y-104757988D02*
G01*
X152924634Y-104825565D01*
X153071461Y-104923672D01*
X153196328Y-105048539D01*
X153294435Y-105195366D01*
X153362012Y-105358512D01*
X153396462Y-105531706D01*
X153396462Y-105708294D01*
X153362012Y-105881488D01*
X153294435Y-106044634D01*
X153196328Y-106191461D01*
X153071461Y-106316328D01*
X152924634Y-106414435D01*
X152761488Y-106482012D01*
X152588294Y-106516462D01*
X152411706Y-106516462D01*
X152238512Y-106482012D01*
X152075366Y-106414435D01*
X151928539Y-106316328D01*
X151803672Y-106191461D01*
X151705565Y-106044634D01*
X151637988Y-105881488D01*
X151603538Y-105708294D01*
X151603538Y-105531706D01*
X151637988Y-105358512D01*
X151705565Y-105195366D01*
X151803672Y-105048539D01*
X151928539Y-104923672D01*
X152075366Y-104825565D01*
X152238512Y-104757988D01*
X152411706Y-104723538D01*
X152588294Y-104723538D01*
X152761488Y-104757988D01*
G37*
G36*
X157029034Y-104330764D02*
G01*
X157062125Y-104352875D01*
X157084236Y-104385966D01*
X157092000Y-104425000D01*
X157092000Y-105285000D01*
X157084236Y-105324034D01*
X157062125Y-105357125D01*
X157029034Y-105379236D01*
X156990000Y-105387000D01*
X156010000Y-105387000D01*
X155970966Y-105379236D01*
X155937875Y-105357125D01*
X155915764Y-105324034D01*
X155908000Y-105285000D01*
X155908000Y-104425000D01*
X155915764Y-104385966D01*
X155937875Y-104352875D01*
X155970966Y-104330764D01*
X156010000Y-104323000D01*
X156990000Y-104323000D01*
X157029034Y-104330764D01*
G37*
G36*
X152761488Y-102217988D02*
G01*
X152924634Y-102285565D01*
X153071461Y-102383672D01*
X153196328Y-102508539D01*
X153294435Y-102655366D01*
X153362012Y-102818512D01*
X153396462Y-102991706D01*
X153396462Y-103168294D01*
X153362012Y-103341488D01*
X153294435Y-103504634D01*
X153196328Y-103651461D01*
X153071461Y-103776328D01*
X152924634Y-103874435D01*
X152761488Y-103942012D01*
X152588294Y-103976462D01*
X152411706Y-103976462D01*
X152238512Y-103942012D01*
X152075366Y-103874435D01*
X151928539Y-103776328D01*
X151803672Y-103651461D01*
X151705565Y-103504634D01*
X151637988Y-103341488D01*
X151603538Y-103168294D01*
X151603538Y-102991706D01*
X151637988Y-102818512D01*
X151705565Y-102655366D01*
X151803672Y-102508539D01*
X151928539Y-102383672D01*
X152075366Y-102285565D01*
X152238512Y-102217988D01*
X152411706Y-102183538D01*
X152588294Y-102183538D01*
X152761488Y-102217988D01*
G37*
G36*
X157029034Y-102040764D02*
G01*
X157062125Y-102062875D01*
X157084236Y-102095966D01*
X157092000Y-102135000D01*
X157092000Y-102995000D01*
X157084236Y-103034034D01*
X157062125Y-103067125D01*
X157029034Y-103089236D01*
X156990000Y-103097000D01*
X156010000Y-103097000D01*
X155970966Y-103089236D01*
X155937875Y-103067125D01*
X155915764Y-103034034D01*
X155908000Y-102995000D01*
X155908000Y-102135000D01*
X155915764Y-102095966D01*
X155937875Y-102062875D01*
X155970966Y-102040764D01*
X156010000Y-102033000D01*
X156990000Y-102033000D01*
X157029034Y-102040764D01*
G37*
G36*
X157029034Y-100510764D02*
G01*
X157062125Y-100532875D01*
X157084236Y-100565966D01*
X157092000Y-100605000D01*
X157092000Y-101465000D01*
X157084236Y-101504034D01*
X157062125Y-101537125D01*
X157029034Y-101559236D01*
X156990000Y-101567000D01*
X156010000Y-101567000D01*
X155970966Y-101559236D01*
X155937875Y-101537125D01*
X155915764Y-101504034D01*
X155908000Y-101465000D01*
X155908000Y-100605000D01*
X155915764Y-100565966D01*
X155937875Y-100532875D01*
X155970966Y-100510764D01*
X156010000Y-100503000D01*
X156990000Y-100503000D01*
X157029034Y-100510764D01*
G37*
G36*
X152761488Y-99677988D02*
G01*
X152924634Y-99745565D01*
X153071461Y-99843672D01*
X153196328Y-99968539D01*
X153294435Y-100115366D01*
X153362012Y-100278512D01*
X153396462Y-100451706D01*
X153396462Y-100628294D01*
X153362012Y-100801488D01*
X153294435Y-100964634D01*
X153196328Y-101111461D01*
X153071461Y-101236328D01*
X152924634Y-101334435D01*
X152761488Y-101402012D01*
X152588294Y-101436462D01*
X152411706Y-101436462D01*
X152238512Y-101402012D01*
X152075366Y-101334435D01*
X151928539Y-101236328D01*
X151803672Y-101111461D01*
X151705565Y-100964634D01*
X151637988Y-100801488D01*
X151603538Y-100628294D01*
X151603538Y-100451706D01*
X151637988Y-100278512D01*
X151705565Y-100115366D01*
X151803672Y-99968539D01*
X151928539Y-99843672D01*
X152075366Y-99745565D01*
X152238512Y-99677988D01*
X152411706Y-99643538D01*
X152588294Y-99643538D01*
X152761488Y-99677988D01*
G37*
G36*
X157029034Y-98240764D02*
G01*
X157062125Y-98262875D01*
X157084236Y-98295966D01*
X157092000Y-98335000D01*
X157092000Y-99195000D01*
X157084236Y-99234034D01*
X157062125Y-99267125D01*
X157029034Y-99289236D01*
X156990000Y-99297000D01*
X156010000Y-99297000D01*
X155970966Y-99289236D01*
X155937875Y-99267125D01*
X155915764Y-99234034D01*
X155908000Y-99195000D01*
X155908000Y-98335000D01*
X155915764Y-98295966D01*
X155937875Y-98262875D01*
X155970966Y-98240764D01*
X156010000Y-98233000D01*
X156990000Y-98233000D01*
X157029034Y-98240764D01*
G37*
G36*
X153369440Y-97103067D02*
G01*
X153385921Y-97114079D01*
X153396933Y-97130560D01*
X153400800Y-97150000D01*
X153400800Y-98850000D01*
X153396933Y-98869440D01*
X153385921Y-98885921D01*
X153369440Y-98896933D01*
X153350000Y-98900800D01*
X151650000Y-98900800D01*
X151630560Y-98896933D01*
X151614079Y-98885921D01*
X151603067Y-98869440D01*
X151599200Y-98850000D01*
X151599200Y-97150000D01*
X151603067Y-97130560D01*
X151614079Y-97114079D01*
X151630560Y-97103067D01*
X151650000Y-97099200D01*
X153350000Y-97099200D01*
X153369440Y-97103067D01*
G37*
G36*
X157029034Y-96710764D02*
G01*
X157062125Y-96732875D01*
X157084236Y-96765966D01*
X157092000Y-96805000D01*
X157092000Y-97665000D01*
X157084236Y-97704034D01*
X157062125Y-97737125D01*
X157029034Y-97759236D01*
X156990000Y-97767000D01*
X156010000Y-97767000D01*
X155970966Y-97759236D01*
X155937875Y-97737125D01*
X155915764Y-97704034D01*
X155908000Y-97665000D01*
X155908000Y-96805000D01*
X155915764Y-96765966D01*
X155937875Y-96732875D01*
X155970966Y-96710764D01*
X156010000Y-96703000D01*
X156990000Y-96703000D01*
X157029034Y-96710764D01*
G37*
M02*
