%TF.GenerationSoftware,KiCad,Pcbnew,9.0.0*%
%TF.CreationDate,2025-03-29T17:04:07-04:00*%
%TF.ProjectId,ResistorString,52657369-7374-46f7-9253-7472696e672e,rev?*%
%TF.SameCoordinates,Original*%
%TF.FileFunction,Legend,Top*%
%TF.FilePolarity,Positive*%
%FSLAX46Y46*%
G04 Gerber Fmt 4.6, Leading zero omitted, Abs format (unit mm)*
G04 Created by KiCad (PCBNEW 9.0.0) date 2025-03-29 17:04:07*
%MOMM*%
%LPD*%
G01*
G04 APERTURE LIST*
%ADD10C,0.100000*%
%ADD11C,0.120000*%
G04 APERTURE END LIST*
D10*
X155629847Y-98066666D02*
X155439371Y-98199999D01*
X155629847Y-98295237D02*
X155229847Y-98295237D01*
X155229847Y-98295237D02*
X155229847Y-98142856D01*
X155229847Y-98142856D02*
X155248895Y-98104761D01*
X155248895Y-98104761D02*
X155267942Y-98085714D01*
X155267942Y-98085714D02*
X155306038Y-98066666D01*
X155306038Y-98066666D02*
X155363180Y-98066666D01*
X155363180Y-98066666D02*
X155401276Y-98085714D01*
X155401276Y-98085714D02*
X155420323Y-98104761D01*
X155420323Y-98104761D02*
X155439371Y-98142856D01*
X155439371Y-98142856D02*
X155439371Y-98295237D01*
X155629847Y-97685714D02*
X155629847Y-97914285D01*
X155629847Y-97799999D02*
X155229847Y-97799999D01*
X155229847Y-97799999D02*
X155286990Y-97838095D01*
X155286990Y-97838095D02*
X155325085Y-97876190D01*
X155325085Y-97876190D02*
X155344133Y-97914285D01*
X155629847Y-101866666D02*
X155439371Y-101999999D01*
X155629847Y-102095237D02*
X155229847Y-102095237D01*
X155229847Y-102095237D02*
X155229847Y-101942856D01*
X155229847Y-101942856D02*
X155248895Y-101904761D01*
X155248895Y-101904761D02*
X155267942Y-101885714D01*
X155267942Y-101885714D02*
X155306038Y-101866666D01*
X155306038Y-101866666D02*
X155363180Y-101866666D01*
X155363180Y-101866666D02*
X155401276Y-101885714D01*
X155401276Y-101885714D02*
X155420323Y-101904761D01*
X155420323Y-101904761D02*
X155439371Y-101942856D01*
X155439371Y-101942856D02*
X155439371Y-102095237D01*
X155267942Y-101714285D02*
X155248895Y-101695237D01*
X155248895Y-101695237D02*
X155229847Y-101657142D01*
X155229847Y-101657142D02*
X155229847Y-101561904D01*
X155229847Y-101561904D02*
X155248895Y-101523809D01*
X155248895Y-101523809D02*
X155267942Y-101504761D01*
X155267942Y-101504761D02*
X155306038Y-101485714D01*
X155306038Y-101485714D02*
X155344133Y-101485714D01*
X155344133Y-101485714D02*
X155401276Y-101504761D01*
X155401276Y-101504761D02*
X155629847Y-101733333D01*
X155629847Y-101733333D02*
X155629847Y-101485714D01*
X155629847Y-105686666D02*
X155439371Y-105819999D01*
X155629847Y-105915237D02*
X155229847Y-105915237D01*
X155229847Y-105915237D02*
X155229847Y-105762856D01*
X155229847Y-105762856D02*
X155248895Y-105724761D01*
X155248895Y-105724761D02*
X155267942Y-105705714D01*
X155267942Y-105705714D02*
X155306038Y-105686666D01*
X155306038Y-105686666D02*
X155363180Y-105686666D01*
X155363180Y-105686666D02*
X155401276Y-105705714D01*
X155401276Y-105705714D02*
X155420323Y-105724761D01*
X155420323Y-105724761D02*
X155439371Y-105762856D01*
X155439371Y-105762856D02*
X155439371Y-105915237D01*
X155229847Y-105553333D02*
X155229847Y-105305714D01*
X155229847Y-105305714D02*
X155382228Y-105439047D01*
X155382228Y-105439047D02*
X155382228Y-105381904D01*
X155382228Y-105381904D02*
X155401276Y-105343809D01*
X155401276Y-105343809D02*
X155420323Y-105324761D01*
X155420323Y-105324761D02*
X155458419Y-105305714D01*
X155458419Y-105305714D02*
X155553657Y-105305714D01*
X155553657Y-105305714D02*
X155591752Y-105324761D01*
X155591752Y-105324761D02*
X155610800Y-105343809D01*
X155610800Y-105343809D02*
X155629847Y-105381904D01*
X155629847Y-105381904D02*
X155629847Y-105496190D01*
X155629847Y-105496190D02*
X155610800Y-105534285D01*
X155610800Y-105534285D02*
X155591752Y-105553333D01*
X154179847Y-106783333D02*
X154465561Y-106783333D01*
X154465561Y-106783333D02*
X154522704Y-106802380D01*
X154522704Y-106802380D02*
X154560800Y-106840476D01*
X154560800Y-106840476D02*
X154579847Y-106897618D01*
X154579847Y-106897618D02*
X154579847Y-106935714D01*
X154579847Y-106383333D02*
X154579847Y-106611904D01*
X154579847Y-106497618D02*
X154179847Y-106497618D01*
X154179847Y-106497618D02*
X154236990Y-106535714D01*
X154236990Y-106535714D02*
X154275085Y-106573809D01*
X154275085Y-106573809D02*
X154294133Y-106611904D01*
D11*
%TO.C,J1*%
X151170000Y-96670000D02*
X152500000Y-96670000D01*
X151170000Y-98000000D02*
X151170000Y-96670000D01*
X151170000Y-99270000D02*
X151170000Y-106950000D01*
X151170000Y-99270000D02*
X153830000Y-99270000D01*
X151170000Y-106950000D02*
X153830000Y-106950000D01*
X153830000Y-99270000D02*
X153830000Y-106950000D01*
%TD*%
M02*
